<svg xmlns="http://www.w3.org/2000/svg" viewBox="0 0 512 512"><rect width="512" height="512" rx="96" fill="#0f766e"/><rect x="116" y="116" width="280" height="280" rx="28" fill="#f5f7fb"/><g fill="#2563eb"><rect x="140" y="140" width="54" height="54" rx="8"/><rect x="205" y="140" width="54" height="54" rx="8"/><rect x="270" y="140" width="54" height="54" rx="8"/><rect x="335" y="140" width="37" height="54" rx="8"/><rect x="140" y="205" width="54" height="54" rx="8"/><rect x="270" y="205" width="54" height="54" rx="8"/><rect x="335" y="205" width="37" height="54" rx="8"/><rect x="140" y="270" width="54" height="54" rx="8"/><rect x="205" y="270" width="54" height="54" rx="8"/><rect x="270" y="270" width="54" height="54" rx="8"/><rect x="335" y="270" width="37" height="54" rx="8"/></g><g fill="#f59e0b"><rect x="140" y="335" width="54" height="37" rx="8"/><rect x="205" y="335" width="54" height="37" rx="8"/><rect x="270" y="335" width="54" height="37" rx="8"/></g></svg>
